# xmcd
#
# Track frame offsets: 
#        150
#        18316
#        38336
#        55519
#        71574
#        87908
#        107899
#        124550
#        142399
#        162005
#        182708
#        204213
#        216589
#        232583
#        251634
#        272009
#        287086
#        306776
#        324780
#        342848
#
# Disc length: 4786 seconds
#
# Revision: 0
# Processed by: cddbd v1.5.2PL0 Copyright (c) Steve Scherf et al.
# Submitted via: ExactAudioCopy v0.95a5
#
DISCID=1312b014
DTITLE=Various Artist - classic Soul ballads
DYEAR=2006
DGENRE=Soul
TTITLE0=Marvin Gaye - Let's Get It On
TTITLE1=Smokey Robinson - Cruisin'
TTITLE2=The Temptations - Just My Imagination (Running Away With Me)
TTITLE3=Barry White - It's Ecstasy When You Lay Down Next To Me
TTITLE4=Commodores - Three Times A Lady
TTITLE5=Jeffrey Osborne - You Should Be Mine (The Woo Woo Song)
TTITLE6=Vanessa Williams - Save The Best For Last
TTITLE7=Boyz II Men - I'll Make Love To You
TTITLE8=Kool And The Gang - Cherish
TTITLE9=Oleta Adams - Get Here
TTITLE10=Patti LaBelle - If Only You Knew
TTITLE11=The Miracles - Ooo Baby Baby
TTITLE12=The Brothers Johnson - I'll Be Good To You
TTITLE13=The Floaters - Float On
TTITLE14=Tony! Toni! Tone! - Anniversary
TTITLE15=Rufus featuring Chaka Khan - Sweet Thing
TTITLE16=Brenda Russel - Piano In The Dark
TTITLE17=Four Tops - I Believe In You And Me
TTITLE18=Ready For The World - Love You Down
TTITLE19=Eddie Holman - Hey There Lonely Girl
EXTD=
EXTT0=
EXTT1=
EXTT2=
EXTT3=
EXTT4=
EXTT5=
EXTT6=
EXTT7=
EXTT8=
EXTT9=
EXTT10=
EXTT11=
EXTT12=
EXTT13=
EXTT14=
EXTT15=
EXTT16=
EXTT17=
EXTT18=
EXTT19=
PLAYORDER=
